<!--?xml version="1.0" standalone="no"?-->

<svg xmlns="http://www.w3.org/2000/svg" width="300.000000pt" height="300.000000pt" viewBox="0 0 300.000000 300.000000" preserveAspectRatio="xMidYMid meet">
<g transform="translate(0.000000,300.000000) scale(0.100000,-0.100000)" fill="#040404" stroke="none">
<path style="position: relative;" d="M1956 2916 c-88 -33 -126 -86 -126 -178 0 -69 9 -95 51 -143 31 -35
32 -39 18 -63 -12 -22 -25 -28 -84 -37 -74 -12 -82 -16 -225 -124 -168 -128
-270 -237 -270 -292 0 -26 44 -92 198 -293 l73 -96 -86 -107 c-80 -99 -132
-188 -148 -253 -3 -14 -29 -51 -57 -82 l-51 -57 31 -22 c16 -13 30 -26 30 -31
0 -4 -31 -54 -68 -110 -38 -57 -78 -120 -91 -140 -39 -65 -62 -75 -186 -80
-125 -5 -174 -22 -255 -86 -69 -55 -148 -78 -212 -63 -71 16 -94 14 -122 -12
-21 -17 -28 -37 -36 -92 -5 -38 -19 -101 -30 -140 -46 -157 -17 -242 48 -137
16 26 61 86 101 134 78 94 76 93 224 127 48 12 124 30 170 41 94 22 229 40
302 39 59 -1 93 11 143 49 20 16 71 54 112 85 85 64 177 150 234 220 44 53 52
55 161 32 101 -21 115 -20 115 10 0 30 -1 30 58 5 50 -20 138 -44 210 -55 23
-4 42 -10 42 -13 0 -4 -7 -29 -15 -56 -31 -102 -9 -309 46 -441 11 -26 14
-155 6 -270 -2 -23 4 -32 25 -42 32 -16 314 -40 378 -33 76 8 71 12 -139 114
-39 19 -77 47 -95 70 l-31 38 3 177 c1 97 7 210 13 251 22 162 27 240 18 273
-7 27 -38 56 -160 153 -83 65 -190 145 -238 178 -47 32 -90 62 -95 66 -5 5 5
29 23 54 35 53 71 128 97 204 19 54 32 63 54 37 7 -8 23 -15 36 -15 38 0 191
85 299 165 55 41 110 75 121 75 12 0 33 9 48 21 38 30 35 72 -8 115 -28 28
-41 34 -78 34 -49 0 -40 9 -95 -105 -9 -21 -33 -44 -57 -58 -52 -30 -133 -60
-147 -55 -7 2 -13 34 -15 73 -1 39 -12 99 -23 135 -10 36 -22 93 -26 127 -6
58 -10 65 -46 94 -33 26 -39 36 -39 70 l0 39 45 0 c55 0 67 17 84 115 9 53 9
98 1 180 -13 136 -13 136 -52 165 -40 30 -152 38 -212 16z m-280 -825 c-10
-106 -36 -202 -55 -199 -18 4 -91 135 -91 164 0 15 21 37 68 71 37 28 71 48
76 45 5 -3 5 -39 2 -81z" id="node1" class="node"></path>
</g>
<g transform="translate(0.000000,300.000000) scale(0.100000,-0.100000)" fill="#A1A1A1" stroke="none">


</g>
</svg>