<?xml version="1.0" encoding="utf-8"?>
<!-- Svg Vector Icons : http://www.onlinewebfonts.com/icon -->
<!DOCTYPE svg PUBLIC "-//W3C//DTD SVG 1.1//EN" "http://www.w3.org/Graphics/SVG/1.1/DTD/svg11.dtd">
<svg version="1.1" xmlns="http://www.w3.org/2000/svg" xmlns:xlink="http://www.w3.org/1999/xlink" x="0px" y="0px" viewBox="0 0 1000 1000" enable-background="new 0 0 1000 1000" xml:space="preserve">
<metadata> Svg Vector Icons : http://www.onlinewebfonts.com/icon </metadata>
<g><g transform="matrix(1 0 0 -1 0 1920)"><path d="M236.2,1118.5c-10.3,0-19.2,3.7-26.6,11.1c-7.4,7.4-11.1,16.3-11.1,26.6v75.4c0-10.3-3.7-19.2-11.1-26.6c-7.4-7.4-16.3-11.1-26.6-11.1h-37.7c-10.3,0-19.2,3.7-26.6,11.1c-7.4,7.4-11.1,16.3-11.1,26.6v113.1H10v150.8h75.4v113.1c0,10.3,3.7,19.2,11.1,26.6c7.4,7.4,16.3,11.1,26.6,11.1h37.7c10.3,0,19.2-3.7,26.6-11.1s11.1-16.3,11.1-26.6v75.4c0,5,1,9.9,3,14.5c2,4.6,4.7,8.7,8.1,12.1c3.4,3.4,7.4,6.1,12.1,8.1c4.6,2,9.5,3,14.5,3h37.7c10.3,0,19.2-3.7,26.6-11.1c7.4-7.4,11.1-16.3,11.1-26.6v-188.5h376.9v188.5c0,10.3,3.7,19.2,11.1,26.6s16.3,11.1,26.6,11.1h37.7c10.3,0,19.2-3.7,26.6-11.1c7.4-7.4,11.1-16.3,11.1-26.6v-75.4c0,10.3,3.7,19.2,11.1,26.6c7.4,7.4,16.3,11.1,26.6,11.1h37.7c10.3,0,19.2-3.7,26.6-11.1s11.1-16.3,11.1-26.6v-113.1H990v-150.8h-75.4v-113.1c0-10.3-3.7-19.2-11.1-26.6c-7.4-7.4-16.3-11.1-26.6-11.1h-37.7c-6.8,0-13.1,1.7-18.8,5.1c-5.8,3.4-10.4,8-13.8,13.8s-5.1,12.1-5.1,18.8v-75.4c0-10.3-3.7-19.2-11.1-26.6c-7.4-7.4-16.3-11.1-26.6-11.1h-37.7c-10.3,0-19.2,3.7-26.6,11.1c-7.4,7.4-11.1,16.3-11.1,26.6v188.5H311.5v-188.5c0-6.8-1.7-13.1-5.1-18.8c-3.4-5.8-8-10.4-13.8-13.8s-12.1-5.1-18.8-5.1H236.2z"/></g></g>
</svg>